# xmcd CD database file
#
# Track frame offsets:
#	150
#	44370
#	74323
#	101730
#	132480
#	152955
#	183885
#	214070
#	241303
#
# Disc length: 3409 seconds
#
# Revision: 1
# Processed by: cddbd v1.5.2PL0 Copyright (c) Steve Scherf et al.
# Submitted via: CDex 1.70beta3
#
DISCID=800d4f09
DTITLE=秋吉　敏子 - ホープ
DYEAR=2005
DGENRE=Jazz
TTITLE0=ミラノの饗宴
TTITLE1=メモリー
TTITLE2=広島節
TTITLE3=エンドレス・ジャーニー
TTITLE4=アフター・ミスター・テン
TTITLE5=スイート・ロレイン
TTITLE6=すみ絵
TTITLE7=ドラム・コンファレンス
TTITLE8=ホープ
EXTD=YEAR: 2005
EXTT0=
EXTT1=
EXTT2=
EXTT3=
EXTT4=
EXTT5=
EXTT6=
EXTT7=
EXTT8=
PLAYORDER=
